<svg xmlns="http://www.w3.org/2000/svg" width="800" height="800" viewBox="0 0 800 800">
<rect width="100%" height="100%" fill="#1a1d22"/>
<polyline points="94.1,76.2 113.5,97.0 132.7,120.4 152.5,145.0 173.2,170.4 195.3,196.3 217.0,222.5 235.7,248.9 250.8,275.7 263.5,302.7 275.2,328.0 286.2,350.5 297.8,368.9 313.8,384.1 336.9,398.9 367.4,414.1 404.8,430.2 446.0,447.8 484.6,465.3 516.9,482.5 546.4,498.7 572.1,514.1 594.8,530.2 617.3,546.1 642.1,559.9 669.8,570.3 699.8,578.8 731.1,585.1 763.3,590.6" stroke="#4a7fb5" stroke-width="30.0" fill="none" stroke-linecap="round" opacity="0.9"/>
<polygon points="740.0,358.6 732.6,410.3 723.8,465.3 710.1,520.9 688.8,570.1 660.6,602.7 628.1,622.6 592.1,638.8 552.4,658.6 511.0,688.9 467.6,728.4 424.9,759.9 387.5,767.9 355.2,754.5 321.3,728.3 281.3,697.5 234.8,665.4 181.3,638.7 139.5,614.7 110.2,588.9 90.2,559.7 77.3,524.3 64.4,482.8 49.4,434.3 37.2,378.2 32.1,318.2 35.8,259.3 48.3,201.9 70.5,153.7 100.0,122.4 136.1,101.1 177.4,82.1 221.2,63.1 265.3,46.6 309.6,35.5 354.1,32.4 397.7,32.1 441.0,34.2 482.7,39.5 521.7,49.0 561.1,61.3 597.5,78.0 635.1,101.0 675.8,134.1 708.9,174.2 734.1,217.1 746.3,262.6 745.7,309.3 740.0,358.6" fill="#2a2e35" stroke="#8a8f98" stroke-width="2"/>
<polygon points="396.1,410.5 321.6,384.6 241.0,463.8 394.5,498.2 396.1,410.5" fill="none" stroke="#6b7280" stroke-width="0.7" opacity="0.55"/>
<polygon points="311.3,599.5 400.6,629.6 394.5,498.2 303.5,477.1 311.3,599.5" fill="none" stroke="#6b7280" stroke-width="0.7" opacity="0.55"/>
<polygon points="303.5,477.1 241.0,463.8 174.6,572.7 311.3,599.5 303.5,477.1" fill="none" stroke="#6b7280" stroke-width="0.7" opacity="0.55"/>
<polygon points="350.1,720.8 387.5,767.9 400.6,629.6 359.4,614.8 350.1,720.8" fill="none" stroke="#6b7280" stroke-width="0.7" opacity="0.55"/>
<polygon points="359.4,614.8 325.7,603.3 265.6,663.0 350.1,720.8 359.4,614.8" fill="none" stroke="#6b7280" stroke-width="0.7" opacity="0.55"/>
<polygon points="325.7,603.3 174.6,572.7 139.5,614.7 265.6,663.0 325.7,603.3" fill="none" stroke="#6b7280" stroke-width="0.7" opacity="0.55"/>
<polygon points="321.6,384.6 318.9,366.1 231.7,338.8 241.0,463.8 321.6,384.6" fill="none" stroke="#6b7280" stroke-width="0.7" opacity="0.55"/>
<polygon points="155.1,432.7 174.6,572.7 241.0,463.8 229.7,406.2 155.1,432.7" fill="none" stroke="#6b7280" stroke-width="0.7" opacity="0.55"/>
<polygon points="229.7,406.2 231.7,338.8 131.2,294.7 155.1,432.7 229.7,406.2" fill="none" stroke="#6b7280" stroke-width="0.7" opacity="0.55"/>
<polygon points="107.5,514.5 139.5,614.7 174.6,572.7 154.4,418.7 107.5,514.5" fill="none" stroke="#6b7280" stroke-width="0.7" opacity="0.55"/>
<polygon points="81.2,421.9 107.5,514.5 154.4,418.7 146.7,357.5 81.2,421.9" fill="none" stroke="#6b7280" stroke-width="0.7" opacity="0.55"/>
<polygon points="146.7,357.5 131.2,294.7 32.1,318.2 81.2,421.9 146.7,357.5" fill="none" stroke="#6b7280" stroke-width="0.7" opacity="0.55"/>
<polygon points="305.5,286.8 231.7,338.8 318.9,366.1 343.0,355.3 305.5,286.8" fill="none" stroke="#6b7280" stroke-width="0.7" opacity="0.55"/>
<polygon points="343.0,355.3 372.1,334.7 359.4,245.5 305.5,286.8 343.0,355.3" fill="none" stroke="#6b7280" stroke-width="0.7" opacity="0.55"/>
<polygon points="372.1,334.7 404.0,337.3 442.7,229.2 359.4,245.5 372.1,334.7" fill="none" stroke="#6b7280" stroke-width="0.7" opacity="0.55"/>
<polygon points="394.2,136.4 297.4,140.0 359.4,245.5 409.3,238.7 394.2,136.4" fill="none" stroke="#6b7280" stroke-width="0.7" opacity="0.55"/>
<polygon points="409.3,238.7 442.7,229.2 505.7,131.3 394.2,136.4 409.3,238.7" fill="none" stroke="#6b7280" stroke-width="0.7" opacity="0.55"/>
<polygon points="375.9,38.0 265.3,46.6 297.4,140.0 340.1,140.6 375.9,38.0" fill="none" stroke="#6b7280" stroke-width="0.7" opacity="0.55"/>
<polygon points="340.1,140.6 393.5,136.5 454.8,44.6 375.9,38.0 340.1,140.6" fill="none" stroke="#6b7280" stroke-width="0.7" opacity="0.55"/>
<polygon points="393.5,136.5 505.7,131.3 561.1,61.3 454.8,44.6 393.5,136.5" fill="none" stroke="#6b7280" stroke-width="0.7" opacity="0.55"/>
<polygon points="599.3,223.8 505.7,131.3 442.7,229.2 482.0,280.9 599.3,223.8" fill="none" stroke="#6b7280" stroke-width="0.7" opacity="0.55"/>
<polygon points="482.0,280.9 578.4,361.5 675.0,297.3 599.3,223.8 482.0,280.9" fill="none" stroke="#6b7280" stroke-width="0.7" opacity="0.55"/>
<polygon points="645.6,173.7 561.1,61.3 505.7,131.3 578.9,206.5 645.6,173.7" fill="none" stroke="#6b7280" stroke-width="0.7" opacity="0.55"/>
<polygon points="578.9,206.5 675.0,297.3 745.7,309.3 645.6,173.7 578.9,206.5" fill="none" stroke="#6b7280" stroke-width="0.7" opacity="0.55"/>
<polygon points="648.6,460.5 675.0,297.3 578.4,361.5 575.4,406.9 648.6,460.5" fill="none" stroke="#6b7280" stroke-width="0.7" opacity="0.55"/>
<polygon points="575.4,406.9 564.7,463.9 613.2,556.3 648.6,460.5 575.4,406.9" fill="none" stroke="#6b7280" stroke-width="0.7" opacity="0.55"/>
<polygon points="707.5,427.0 745.7,309.3 675.0,297.3 649.1,458.7 707.5,427.0" fill="none" stroke="#6b7280" stroke-width="0.7" opacity="0.55"/>
<polygon points="649.1,458.7 613.2,556.3 660.6,602.7 707.5,427.0 649.1,458.7" fill="none" stroke="#6b7280" stroke-width="0.7" opacity="0.55"/>
<polygon points="514.3,566.7 613.2,556.3 564.7,463.9 478.0,476.4 514.3,566.7" fill="none" stroke="#6b7280" stroke-width="0.7" opacity="0.55"/>
<polygon points="478.0,476.4 394.5,498.2 400.6,629.6 514.3,566.7 478.0,476.4" fill="none" stroke="#6b7280" stroke-width="0.7" opacity="0.55"/>
<polygon points="590.3,621.8 660.6,602.7 613.2,556.3 562.4,561.7 590.3,621.8" fill="none" stroke="#6b7280" stroke-width="0.7" opacity="0.55"/>
<polygon points="562.4,561.7 524.1,565.3 489.0,663.4 590.3,621.8 562.4,561.7" fill="none" stroke="#6b7280" stroke-width="0.7" opacity="0.55"/>
<polygon points="524.1,565.3 400.6,629.6 387.5,767.9 489.0,663.4 524.1,565.3" fill="none" stroke="#6b7280" stroke-width="0.7" opacity="0.55"/>
<polyline points="380.2,376.2 394.5,406.6 400.5,443.6 395.3,489.7 392.7,551.7 398.3,614.6 405.5,676.0 401.1,741.9" stroke="#5a5148" stroke-width="2.5" fill="none" opacity="0.9"/>
<polyline points="380.2,376.2 327.5,383.1 281.7,405.6 245.5,454.9 216.2,514.9 183.3,563.4 146.9,595.9 109.5,619.6" stroke="#5a5148" stroke-width="2.5" fill="none" opacity="0.9"/>
<polyline points="380.2,376.2 325.0,367.1 277.7,358.2 237.6,342.2 195.6,317.6 145.4,297.1 86.1,294.7 26.5,302.7" stroke="#5a5148" stroke-width="2.5" fill="none" opacity="0.9"/>
<polyline points="380.2,376.2 372.3,339.7 369.6,295.7 361.9,252.2 337.7,205.8 304.7,154.0 279.7,95.0 262.6,33.4" stroke="#5a5148" stroke-width="2.5" fill="none" opacity="0.9"/>
<polyline points="380.2,376.2 402.0,342.6 417.7,292.7 438.7,237.4 468.4,185.2 498.3,141.1 525.8,101.6 551.9,59.6" stroke="#5a5148" stroke-width="2.5" fill="none" opacity="0.9"/>
<polyline points="380.2,376.2 440.6,375.5 508.4,373.1 570.0,364.3 621.2,338.6 664.4,304.3 708.2,285.4 753.8,289.0" stroke="#5a5148" stroke-width="2.5" fill="none" opacity="0.9"/>
<polyline points="380.2,376.2 431.8,404.1 501.1,432.6 557.7,459.6 594.0,495.2 609.3,543.8 630.6,590.9 671.8,626.9" stroke="#5a5148" stroke-width="2.5" fill="none" opacity="0.9"/>
<polyline points="449.9,382.1 451.1,387.7 451.2,392.9 449.8,397.6 446.8,401.8 442.3,405.1 436.3,407.6 429.1,409.2 420.8,410.1 411.6,410.2 401.8,409.9 391.7,409.0 381.5,407.7 371.4,406.1 361.8,404.0 352.8,401.4 344.6,398.3 337.4,394.9 331.3,391.2 326.4,387.2 322.7,383.1 320.4,378.9 319.4,374.7 319.6,370.4 320.9,366.2 323.1,362.0 326.2,358.0 330.1,354.3 334.5,350.7 339.5,347.3 344.9,344.3 350.7,341.7 356.9,339.5 363.3,337.7 369.9,336.5 376.7,335.9 383.6,335.7 390.6,336.0 397.4,337.0 404.2,338.8 410.7,341.4 417.1,344.8 423.3,348.9 429.2,353.6 434.7,358.9 439.7,364.5 444.0,370.3 447.4,376.3 449.9,382.1" stroke="#5a5148" stroke-width="2.5" fill="none" opacity="0.9"/>
<polyline points="575.7,372.5 578.8,395.7 578.3,418.1 573.5,438.2 564.9,455.7 553.0,469.8 537.7,479.7 519.5,485.9 499.3,489.5 477.3,491.8 453.3,493.1 427.5,493.5 400.6,494.0 372.7,494.9 344.2,493.7 316.0,490.3 290.0,484.7 267.5,476.2 249.0,465.1 234.3,451.5 224.4,435.7 219.7,417.9 219.8,398.2 223.5,377.7 229.2,356.8 235.6,336.5 243.3,317.3 253.5,300.6 265.9,287.0 280.3,276.8 296.8,269.6 314.9,264.4 333.0,258.9 350.6,252.4 367.9,245.7 383.9,239.3 398.8,234.4 413.2,231.5 427.3,231.1 441.9,234.1 457.1,240.0 473.1,248.3 490.1,259.0 508.2,272.1 525.6,287.8 542.3,306.3 557.2,327.0 568.6,349.4 575.7,372.5" stroke="#5a5148" stroke-width="2.5" fill="none" opacity="0.9"/>
<polyline points="678.4,358.2 674.9,402.2 666.0,446.7 652.4,488.6 634.4,524.5 613.3,549.6 587.9,566.2 558.9,577.4 527.9,585.4 495.3,593.1 464.4,603.5 434.9,614.4 403.8,622.2 371.1,625.1 336.7,620.8 298.0,612.0 253.6,599.7 209.9,585.3 176.6,567.2 153.9,545.1 141.0,519.3 136.4,489.7 134.4,454.1 132.2,413.3 131.0,368.1 133.3,323.1 140.8,281.5 153.4,245.8 170.7,217.1 192.7,198.7 218.9,185.3 248.0,172.1 278.9,157.2 310.7,140.8 342.4,124.5 373.9,111.3 405.4,104.0 434.8,103.9 460.4,110.0 482.3,121.3 502.8,135.5 526.6,151.4 554.1,168.4 584.8,188.7 614.1,214.2 640.3,244.0 661.2,278.0 675.4,316.4 678.4,358.2" stroke="#5a5148" stroke-width="2.5" fill="none" opacity="0.9"/>
<polyline points="311.3,599.5 303.5,477.1" stroke="#5a5148" stroke-width="2.5" fill="none" opacity="0.9"/>
<polyline points="265.6,663.0 325.7,603.3" stroke="#5a5148" stroke-width="2.5" fill="none" opacity="0.9"/>
<polyline points="350.1,720.8 359.4,614.8" stroke="#5a5148" stroke-width="2.5" fill="none" opacity="0.9"/>
<polyline points="155.1,432.7 229.7,406.2" stroke="#5a5148" stroke-width="2.5" fill="none" opacity="0.9"/>
<polyline points="107.5,514.5 154.4,418.7" stroke="#5a5148" stroke-width="2.5" fill="none" opacity="0.9"/>
<polyline points="81.2,421.9 146.7,357.5" stroke="#5a5148" stroke-width="2.5" fill="none" opacity="0.9"/>
<polyline points="305.5,286.8 343.0,355.3" stroke="#5a5148" stroke-width="2.5" fill="none" opacity="0.9"/>
<polyline points="394.2,136.4 409.3,238.7" stroke="#5a5148" stroke-width="2.5" fill="none" opacity="0.9"/>
<polyline points="454.8,44.6 393.5,136.5" stroke="#5a5148" stroke-width="2.5" fill="none" opacity="0.9"/>
<polyline points="375.9,38.0 340.1,140.6" stroke="#5a5148" stroke-width="2.5" fill="none" opacity="0.9"/>
<polyline points="599.3,223.8 482.0,280.9" stroke="#5a5148" stroke-width="2.5" fill="none" opacity="0.9"/>
<polyline points="645.6,173.7 578.9,206.5" stroke="#5a5148" stroke-width="2.5" fill="none" opacity="0.9"/>
<polyline points="648.6,460.5 575.4,406.9" stroke="#5a5148" stroke-width="2.5" fill="none" opacity="0.9"/>
<polyline points="707.5,427.0 649.1,458.7" stroke="#5a5148" stroke-width="2.5" fill="none" opacity="0.9"/>
<polyline points="514.3,566.7 478.0,476.4" stroke="#5a5148" stroke-width="2.5" fill="none" opacity="0.9"/>
<polyline points="489.0,663.4 524.1,565.3" stroke="#5a5148" stroke-width="2.5" fill="none" opacity="0.9"/>
<polyline points="590.3,621.8 562.4,561.7" stroke="#5a5148" stroke-width="2.5" fill="none" opacity="0.9"/>
<circle cx="507.0" cy="358.0" r="77.1" fill="#3a3f47" stroke="#9aa0ab" stroke-width="1.5"/>
<polygon points="476.6,321.5 479.9,417.8 560.2,415.0 556.9,318.7 476.6,321.5" fill="#7a7f8a" stroke="#222" stroke-width="1" opacity="0.95"/>
<polygon points="90.2,320.9 96.1,345.9 114.9,341.5 109.0,316.5 90.2,320.9" fill="#c9a86a" stroke="#222" stroke-width="1" opacity="0.95"/>
<polygon points="110.5,477.6 132.4,464.2 122.4,447.7 100.4,461.1 110.5,477.6" fill="#c9a86a" stroke="#222" stroke-width="1" opacity="0.95"/>
<polygon points="111.7,409.5 129.2,428.4 143.3,415.3 125.9,396.4 111.7,409.5" fill="#c9a86a" stroke="#222" stroke-width="1" opacity="0.95"/>
<polygon points="129.0,583.7 151.6,571.4 142.3,554.5 119.8,566.8 129.0,583.7" fill="#c9a86a" stroke="#222" stroke-width="1" opacity="0.95"/>
<polygon points="122.9,488.7 147.7,495.6 152.8,477.0 128.1,470.1 122.9,488.7" fill="#c9a86a" stroke="#222" stroke-width="1" opacity="0.95"/>
<polygon points="146.9,493.8 125.3,507.7 135.7,523.9 157.3,510.0 146.9,493.8" fill="#c9a86a" stroke="#222" stroke-width="1" opacity="0.95"/>
<polygon points="164.7,407.1 187.2,394.8 178.0,377.8 155.4,390.2 164.7,407.1" fill="#c9a86a" stroke="#222" stroke-width="1" opacity="0.95"/>
<polygon points="168.3,464.7 188.1,448.5 175.9,433.6 156.1,449.8 168.3,464.7" fill="#c9a86a" stroke="#222" stroke-width="1" opacity="0.95"/>
<polygon points="168.1,496.6 188.5,481.0 176.8,465.7 156.4,481.3 168.1,496.6" fill="#c9a86a" stroke="#222" stroke-width="1" opacity="0.95"/>
<polygon points="187.0,582.9 180.1,607.7 198.6,612.9 205.5,588.1 187.0,582.9" fill="#c9a86a" stroke="#222" stroke-width="1" opacity="0.95"/>
<polygon points="210.4,535.5 233.7,546.3 241.8,528.8 218.5,518.0 210.4,535.5" fill="#c9a86a" stroke="#222" stroke-width="1" opacity="0.95"/>
<polygon points="227.0,590.3 220.1,615.1 238.6,620.3 245.6,595.6 227.0,590.3" fill="#c9a86a" stroke="#222" stroke-width="1" opacity="0.95"/>
<polygon points="229.1,504.2 252.3,515.3 260.7,498.0 237.5,486.8 229.1,504.2" fill="#c9a86a" stroke="#222" stroke-width="1" opacity="0.95"/>
<polygon points="244.7,374.8 269.3,367.4 263.7,348.9 239.1,356.4 244.7,374.8" fill="#c9a86a" stroke="#222" stroke-width="1" opacity="0.95"/>
<polygon points="248.6,428.7 271.2,416.5 262.0,399.5 239.4,411.7 248.6,428.7" fill="#c9a86a" stroke="#222" stroke-width="1" opacity="0.95"/>
<polygon points="287.4,543.7 261.7,543.6 261.6,562.9 287.3,563.0 287.4,543.7" fill="#c9a86a" stroke="#222" stroke-width="1" opacity="0.95"/>
<polygon points="295.2,652.7 311.8,672.3 326.5,659.9 310.0,640.3 295.2,652.7" fill="#c9a86a" stroke="#222" stroke-width="1" opacity="0.95"/>
<polygon points="308.9,58.8 311.3,84.4 330.5,82.7 328.1,57.1 308.9,58.8" fill="#c9a86a" stroke="#222" stroke-width="1" opacity="0.95"/>
<polygon points="312.9,634.5 330.2,653.5 344.5,640.5 327.1,621.5 312.9,634.5" fill="#c9a86a" stroke="#222" stroke-width="1" opacity="0.95"/>
<polygon points="338.5,154.0 338.6,179.7 357.9,179.6 357.8,153.9 338.5,154.0" fill="#c9a86a" stroke="#222" stroke-width="1" opacity="0.95"/>
<polygon points="360.4,310.4 335.4,316.2 339.8,335.0 364.8,329.2 360.4,310.4" fill="#c9a86a" stroke="#222" stroke-width="1" opacity="0.95"/>
<polygon points="380.0,604.8 385.8,579.7 367.0,575.4 361.2,600.4 380.0,604.8" fill="#c9a86a" stroke="#222" stroke-width="1" opacity="0.95"/>
<polygon points="391.4,232.6 388.0,207.1 368.9,209.7 372.3,235.2 391.4,232.6" fill="#c9a86a" stroke="#222" stroke-width="1" opacity="0.95"/>
<polygon points="408.1,101.0 387.2,86.1 376.0,101.8 397.0,116.7 408.1,101.0" fill="#c9a86a" stroke="#222" stroke-width="1" opacity="0.95"/>
<polygon points="425.9,71.6 406.5,54.8 393.9,69.4 413.3,86.2 425.9,71.6" fill="#c9a86a" stroke="#222" stroke-width="1" opacity="0.95"/>
<polygon points="430.9,718.0 414.4,698.2 399.6,710.6 416.0,730.3 430.9,718.0" fill="#c9a86a" stroke="#222" stroke-width="1" opacity="0.95"/>
<polygon points="418.5,213.7 438.9,198.0 427.1,182.7 406.7,198.4 418.5,213.7" fill="#c9a86a" stroke="#222" stroke-width="1" opacity="0.95"/>
<polygon points="441.1,585.4 427.0,563.8 410.9,574.3 424.9,595.9 441.1,585.4" fill="#c9a86a" stroke="#222" stroke-width="1" opacity="0.95"/>
<polygon points="416.6,150.4 422.3,175.5 441.1,171.2 435.4,146.1 416.6,150.4" fill="#c9a86a" stroke="#222" stroke-width="1" opacity="0.95"/>
<polygon points="415.9,627.0 430.2,648.4 446.2,637.6 431.9,616.3 415.9,627.0" fill="#c9a86a" stroke="#222" stroke-width="1" opacity="0.95"/>
<polygon points="442.2,121.2 440.7,95.5 421.5,96.6 423.0,122.3 442.2,121.2" fill="#c9a86a" stroke="#222" stroke-width="1" opacity="0.95"/>
<polygon points="468.2,568.5 456.2,545.8 439.2,554.9 451.2,577.5 468.2,568.5" fill="#c9a86a" stroke="#222" stroke-width="1" opacity="0.95"/>
<polygon points="463.7,121.5 463.9,95.8 444.6,95.7 444.4,121.4 463.7,121.5" fill="#c9a86a" stroke="#222" stroke-width="1" opacity="0.95"/>
<polygon points="470.7,673.3 453.5,654.2 439.2,667.0 456.4,686.2 470.7,673.3" fill="#c9a86a" stroke="#222" stroke-width="1" opacity="0.95"/>
<polygon points="477.9,168.1 455.6,155.3 446.0,172.0 468.3,184.8 477.9,168.1" fill="#c9a86a" stroke="#222" stroke-width="1" opacity="0.95"/>
<polygon points="461.6,209.2 484.8,220.4 493.1,203.0 470.0,191.9 461.6,209.2" fill="#c9a86a" stroke="#222" stroke-width="1" opacity="0.95"/>
<polygon points="492.3,629.7 466.7,627.3 464.9,646.4 490.5,648.9 492.3,629.7" fill="#c9a86a" stroke="#222" stroke-width="1" opacity="0.95"/>
<polygon points="494.1,559.6 488.0,534.7 469.3,539.3 475.4,564.3 494.1,559.6" fill="#c9a86a" stroke="#222" stroke-width="1" opacity="0.95"/>
<polygon points="503.7,597.0 478.8,590.9 474.2,609.6 499.1,615.7 503.7,597.0" fill="#c9a86a" stroke="#222" stroke-width="1" opacity="0.95"/>
<polygon points="509.7,252.8 496.8,230.6 480.1,240.3 493.0,262.5 509.7,252.8" fill="#c9a86a" stroke="#222" stroke-width="1" opacity="0.95"/>
<polygon points="533.6,85.4 512.5,70.8 501.5,86.6 522.6,101.3 533.6,85.4" fill="#c9a86a" stroke="#222" stroke-width="1" opacity="0.95"/>
<polygon points="533.8,239.8 521.8,217.1 504.7,226.1 516.7,248.9 533.8,239.8" fill="#c9a86a" stroke="#222" stroke-width="1" opacity="0.95"/>
<polygon points="508.9,613.9 533.0,622.8 539.7,604.7 515.6,595.8 508.9,613.9" fill="#c9a86a" stroke="#222" stroke-width="1" opacity="0.95"/>
<polygon points="534.0,184.2 516.6,203.1 530.8,216.2 548.2,197.3 534.0,184.2" fill="#c9a86a" stroke="#222" stroke-width="1" opacity="0.95"/>
<polygon points="519.3,587.9 542.5,598.9 550.8,581.5 527.5,570.5 519.3,587.9" fill="#c9a86a" stroke="#222" stroke-width="1" opacity="0.95"/>
<polygon points="550.0,553.3 547.4,527.7 528.2,529.7 530.8,555.3 550.0,553.3" fill="#c9a86a" stroke="#222" stroke-width="1" opacity="0.95"/>
<polygon points="557.8,86.6 535.9,100.1 546.0,116.5 567.9,103.1 557.8,86.6" fill="#c9a86a" stroke="#222" stroke-width="1" opacity="0.95"/>
<polygon points="539.7,264.5 551.6,287.2 568.7,278.3 556.8,255.5 539.7,264.5" fill="#c9a86a" stroke="#222" stroke-width="1" opacity="0.95"/>
<polygon points="556.2,202.0 538.5,220.6 552.5,233.9 570.2,215.2 556.2,202.0" fill="#c9a86a" stroke="#222" stroke-width="1" opacity="0.95"/>
<polygon points="601.1,179.9 587.7,158.0 571.2,168.0 584.6,190.0 601.1,179.9" fill="#c9a86a" stroke="#222" stroke-width="1" opacity="0.95"/>
<polygon points="614.1,606.8 607.3,582.1 588.7,587.2 595.5,612.0 614.1,606.8" fill="#c9a86a" stroke="#222" stroke-width="1" opacity="0.95"/>
<polygon points="631.1,307.8 617.9,285.8 601.4,295.7 614.6,317.7 631.1,307.8" fill="#c9a86a" stroke="#222" stroke-width="1" opacity="0.95"/>
<polygon points="629.8,242.0 650.6,227.0 639.4,211.3 618.5,226.3 629.8,242.0" fill="#c9a86a" stroke="#222" stroke-width="1" opacity="0.95"/>
<polygon points="659.8,374.3 634.3,371.5 632.2,390.7 657.8,393.4 659.8,374.3" fill="#c9a86a" stroke="#222" stroke-width="1" opacity="0.95"/>
<polygon points="653.6,188.6 631.1,201.1 640.5,218.0 663.0,205.5 653.6,188.6" fill="#c9a86a" stroke="#222" stroke-width="1" opacity="0.95"/>
<polygon points="639.3,508.6 664.3,514.7 668.8,496.0 643.9,489.9 639.3,508.6" fill="#c9a86a" stroke="#222" stroke-width="1" opacity="0.95"/>
<polygon points="692.0,470.8 666.8,465.9 663.1,484.8 688.3,489.7 692.0,470.8" fill="#c9a86a" stroke="#222" stroke-width="1" opacity="0.95"/>
<polygon points="665.2,408.3 690.8,410.2 692.3,391.0 666.7,389.0 665.2,408.3" fill="#c9a86a" stroke="#222" stroke-width="1" opacity="0.95"/>
<polygon points="671.8,369.3 697.2,373.1 700.1,354.1 674.7,350.2 671.8,369.3" fill="#c9a86a" stroke="#222" stroke-width="1" opacity="0.95"/>
<polygon points="677.6,334.2 702.7,339.5 706.7,320.6 681.6,315.3 677.6,334.2" fill="#c9a86a" stroke="#222" stroke-width="1" opacity="0.95"/>
<polygon points="716.3,383.7 691.2,378.0 686.9,396.7 712.0,402.5 716.3,383.7" fill="#c9a86a" stroke="#222" stroke-width="1" opacity="0.95"/>
<polygon points="706.9,313.5 703.0,338.8 722.1,341.8 726.0,316.4 706.9,313.5" fill="#c9a86a" stroke="#222" stroke-width="1" opacity="0.95"/>
<polygon points="120.4,559.1 147.5,542.0 139.0,528.4 111.8,545.5 120.4,559.1" fill="#bf8f5a" stroke="#222" stroke-width="1" opacity="0.95"/>
<polygon points="169.7,522.0 196.9,504.8 188.3,491.3 161.1,508.4 169.7,522.0" fill="#bf8f5a" stroke="#222" stroke-width="1" opacity="0.95"/>
<polygon points="183.9,327.4 174.4,358.0 189.7,362.8 199.3,332.1 183.9,327.4" fill="#bf8f5a" stroke="#222" stroke-width="1" opacity="0.95"/>
<polygon points="185.4,430.8 196.2,461.1 211.4,455.7 200.6,425.4 185.4,430.8" fill="#bf8f5a" stroke="#222" stroke-width="1" opacity="0.95"/>
<polygon points="213.8,401.7 206.1,370.5 190.5,374.3 198.3,405.5 213.8,401.7" fill="#bf8f5a" stroke="#222" stroke-width="1" opacity="0.95"/>
<polygon points="267.4,598.1 257.5,628.7 272.7,633.7 282.7,603.1 267.4,598.1" fill="#bf8f5a" stroke="#222" stroke-width="1" opacity="0.95"/>
<polygon points="338.6,472.6 349.7,442.4 334.7,436.9 323.5,467.0 338.6,472.6" fill="#bf8f5a" stroke="#222" stroke-width="1" opacity="0.95"/>
<polygon points="384.5,528.8 352.9,534.3 355.6,550.1 387.3,544.6 384.5,528.8" fill="#bf8f5a" stroke="#222" stroke-width="1" opacity="0.95"/>
<polygon points="366.9,154.2 370.6,186.2 386.5,184.3 382.9,152.4 366.9,154.2" fill="#bf8f5a" stroke="#222" stroke-width="1" opacity="0.95"/>
<polygon points="361.9,675.8 394.0,677.4 394.8,661.3 362.7,659.7 361.9,675.8" fill="#bf8f5a" stroke="#222" stroke-width="1" opacity="0.95"/>
<polygon points="372.6,292.2 400.8,276.9 393.2,262.7 364.9,278.1 372.6,292.2" fill="#bf8f5a" stroke="#222" stroke-width="1" opacity="0.95"/>
<polygon points="411.1,305.2 380.3,296.2 375.8,311.6 406.6,320.6 411.1,305.2" fill="#bf8f5a" stroke="#222" stroke-width="1" opacity="0.95"/>
<polygon points="440.1,607.7 456.6,635.3 470.4,627.0 453.9,599.5 440.1,607.7" fill="#bf8f5a" stroke="#222" stroke-width="1" opacity="0.95"/>
<polygon points="461.2,52.0 456.5,83.8 472.4,86.2 477.1,54.4 461.2,52.0" fill="#bf8f5a" stroke="#222" stroke-width="1" opacity="0.95"/>
<polygon points="519.0,107.0 492.0,89.5 483.3,103.0 510.2,120.5 519.0,107.0" fill="#bf8f5a" stroke="#222" stroke-width="1" opacity="0.95"/>
<polygon points="515.9,166.0 493.1,188.6 504.4,200.0 527.2,177.4 515.9,166.0" fill="#bf8f5a" stroke="#222" stroke-width="1" opacity="0.95"/>
<polygon points="569.4,107.4 542.5,125.0 551.3,138.5 578.2,120.9 569.4,107.4" fill="#bf8f5a" stroke="#222" stroke-width="1" opacity="0.95"/>
<polygon points="586.1,127.4 559.3,145.1 568.1,158.5 594.9,140.8 586.1,127.4" fill="#bf8f5a" stroke="#222" stroke-width="1" opacity="0.95"/>
<polygon points="586.0,481.9 611.9,463.0 602.5,450.0 576.5,468.9 586.0,481.9" fill="#bf8f5a" stroke="#222" stroke-width="1" opacity="0.95"/>
<polygon points="605.8,241.9 582.3,263.9 593.3,275.6 616.8,253.6 605.8,241.9" fill="#bf8f5a" stroke="#222" stroke-width="1" opacity="0.95"/>
<polygon points="598.9,505.3 626.7,489.1 618.6,475.2 590.8,491.4 598.9,505.3" fill="#bf8f5a" stroke="#222" stroke-width="1" opacity="0.95"/>
<polygon points="663.1,345.7 631.1,343.1 629.7,359.1 661.7,361.8 663.1,345.7" fill="#bf8f5a" stroke="#222" stroke-width="1" opacity="0.95"/>
<polygon points="654.2,264.6 680.6,246.3 671.5,233.1 645.1,251.4 654.2,264.6" fill="#bf8f5a" stroke="#222" stroke-width="1" opacity="0.95"/>
<polygon points="246.2,404.2 275.8,391.6 265.7,367.9 236.1,380.5 246.2,404.2" fill="#a87b4f" stroke="#222" stroke-width="1" opacity="0.95"/>
<polygon points="300.3,462.9 310.0,432.3 285.5,424.6 275.8,455.2 300.3,462.9" fill="#a87b4f" stroke="#222" stroke-width="1" opacity="0.95"/>
<polygon points="320.2,286.8 341.1,311.2 360.6,294.5 339.7,270.1 320.2,286.8" fill="#a87b4f" stroke="#222" stroke-width="1" opacity="0.95"/>
<polygon points="352.2,595.9 360.5,564.9 335.6,558.2 327.4,589.3 352.2,595.9" fill="#a87b4f" stroke="#222" stroke-width="1" opacity="0.95"/>
<polygon points="376.6,730.9 393.4,703.5 371.5,690.1 354.7,717.5 376.6,730.9" fill="#a87b4f" stroke="#222" stroke-width="1" opacity="0.95"/>
<polygon points="395.5,254.3 403.0,285.5 428.0,279.5 420.5,248.2 395.5,254.3" fill="#a87b4f" stroke="#222" stroke-width="1" opacity="0.95"/>
<polygon points="429.5,497.7 441.1,527.6 465.0,518.4 453.5,488.4 429.5,497.7" fill="#a87b4f" stroke="#222" stroke-width="1" opacity="0.95"/>
<polygon points="655.7,407.1 624.0,402.0 620.0,427.4 651.7,432.4 655.7,407.1" fill="#a87b4f" stroke="#222" stroke-width="1" opacity="0.95"/>
<polygon points="700.4,291.8 703.6,259.8 678.1,257.2 674.8,289.2 700.4,291.8" fill="#a87b4f" stroke="#222" stroke-width="1" opacity="0.95"/>
<polygon points="427.1,280.7 469.6,295.3 480.1,264.9 437.6,250.3 427.1,280.7" fill="#96704a" stroke="#222" stroke-width="1" opacity="0.95"/>
<polygon points="389.6,409.0 412.9,366.8 370.8,343.5 347.5,385.6 389.6,409.0" fill="#5da05d" stroke="#222" stroke-width="1" opacity="0.95"/>
</svg>